<?xml version="1.0" encoding="UTF-8"?>
<!DOCTYPE svg PUBLIC "-//W3C//DTD SVG 1.1//EN" "http://www.w3.org/Graphics/SVG/1.1/DTD/svg11.dtd">
<!-- Creator: CorelDRAW X5 -->
<svg xmlns="http://www.w3.org/2000/svg" xmlns:xlink="http://www.w3.org/1999/xlink" xml:space="preserve" style="shape-rendering:geometricPrecision; text-rendering:geometricPrecision; image-rendering:optimizeQuality; fill-rule:evenodd; clip-rule:evenodd" viewBox="0 0 8309 5380">
 <defs>
  <style type="text/css">
   <![CDATA[
    .fil0 {fill:#4D4D4D}
    .fil1 {fill:url(#id0)}
   ]]>
  </style>
  <linearGradient id="id0" gradientUnits="userSpaceOnUse" x1="4433.08" y1="1971.33" x2="4433.08" y2="5416.43">
   <stop offset="0" style="stop-color:#B3B3B3"/>
   <stop offset="1" style="stop-color:#999999"/>
  </linearGradient>
 </defs>
 <g id="Layer_x0020_1">
  <metadata id="CorelCorpID_0Corel-Layer"/>
  <path class="fil0" d="M2709 347l0 -147c0,-110 -90,-200 -200,-200l-1840 0c-110,0 -200,90 -200,200l0 347 0 617 0 4016c0,110 90,200 200,200l6973 0c110,0 200,-90 200,-200l0 -4433c0,-110 -90,-200 -200,-200l-4733 0c-110,0 -200,-90 -200,-200z"/>
  <path class="fil1" d="M222 1233c1311,0 2621,0 3932,0 1311,0 2621,0 3933,0 125,0 228,77 222,172 -39,634 -128,1268 -233,1902 -104,634 -193,1268 -232,1902 -6,94 -94,171 -205,171 -1163,0 -2325,0 -3486,0 -1162,0 -2324,0 -3486,0 -111,0 -198,-77 -204,-171 -39,-634 -128,-1268 -232,-1902 -104,-634 -190,-1268 -232,-1902 -2,-95 97,-172 222,-172z"/>
 </g>
</svg>
