<?xml version="1.0" encoding="UTF-8" standalone="no"?>
<!-- Created with Inkscape (http://www.inkscape.org/) -->

<svg
   xmlns:dc="http://purl.org/dc/elements/1.1/"
   xmlns:cc="http://creativecommons.org/ns#"
   xmlns:rdf="http://www.w3.org/1999/02/22-rdf-syntax-ns#"
   xmlns:svg="http://www.w3.org/2000/svg"
   xmlns="http://www.w3.org/2000/svg"
   xmlns:xlink="http://www.w3.org/1999/xlink"
   xmlns:sodipodi="http://sodipodi.sourceforge.net/DTD/sodipodi-0.dtd"
   xmlns:inkscape="http://www.inkscape.org/namespaces/inkscape"
   width="673.09027"
   height="540.59302"
   id="svg2"
   version="1.1"
   inkscape:version="0.48.2 r9819"
   sodipodi:docname="Neues Dokument 1">
  <defs
     id="defs4">
    <linearGradient
       id="linearGradient3888">
      <stop
         style="stop-color:#b2b4c1;stop-opacity:0.19565217;"
         offset="0"
         id="stop3890" />
      <stop
         style="stop-color:#b2b4c1;stop-opacity:0;"
         offset="1"
         id="stop3892" />
    </linearGradient>
    <linearGradient
       id="linearGradient3872">
      <stop
         style="stop-color:#afafaf;stop-opacity:1;"
         offset="0"
         id="stop3874" />
      <stop
         style="stop-color:#ebecef;stop-opacity:1;"
         offset="1"
         id="stop3876" />
    </linearGradient>
    <linearGradient
       id="linearGradient3818">
      <stop
         style="stop-color:#d3d4db;stop-opacity:1;"
         offset="0"
         id="stop3820" />
      <stop
         id="stop3828"
         offset="0.43750009"
         style="stop-color:#4e4f5f;stop-opacity:1;" />
      <stop
         id="stop3826"
         offset="0.62499994"
         style="stop-color:#d3d4db;stop-opacity:1;" />
      <stop
         style="stop-color:#d3d4db;stop-opacity:1;"
         offset="1"
         id="stop3822" />
    </linearGradient>
    <linearGradient
       id="linearGradient3810">
      <stop
         style="stop-color:#d3d4db;stop-opacity:1;"
         offset="0"
         id="stop3812" />
      <stop
         style="stop-color:#0c0c0d;stop-opacity:1;"
         offset="1"
         id="stop3814" />
    </linearGradient>
    <linearGradient
       inkscape:collect="always"
       xlink:href="#linearGradient3810"
       id="linearGradient3816"
       x1="269.63098"
       y1="609.27734"
       x2="269.63098"
       y2="611.0799"
       gradientUnits="userSpaceOnUse"
       gradientTransform="translate(0,-10.925524)" />
    <linearGradient
       inkscape:collect="always"
       xlink:href="#linearGradient3818"
       id="linearGradient3824"
       x1="269.18124"
       y1="560.80396"
       x2="269.18124"
       y2="627.67834"
       gradientUnits="userSpaceOnUse" />
    <filter
       inkscape:collect="always"
       id="filter3857"
       x="-0.033451069"
       width="1.066902"
       y="-0.16997065"
       height="1.3399413"
       color-interpolation-filters="sRGB">
      <feGaussianBlur
         inkscape:collect="always"
         stdDeviation="0.61893193"
         id="feGaussianBlur3859" />
    </filter>
    <filter
       inkscape:collect="always"
       id="filter3867"
       x="-0.032574911"
       width="1.0651498"
       y="-0.19687736"
       height="1.3937547"
       color-interpolation-filters="sRGB">
      <feGaussianBlur
         inkscape:collect="always"
         stdDeviation="0.53611693"
         id="feGaussianBlur3869" />
    </filter>
    <linearGradient
       inkscape:collect="always"
       xlink:href="#linearGradient3872"
       id="linearGradient3878"
       x1="541.76001"
       y1="608.45782"
       x2="121.57742"
       y2="297.69525"
       gradientUnits="userSpaceOnUse" />
    <linearGradient
       inkscape:collect="always"
       xlink:href="#linearGradient3888"
       id="linearGradient3894"
       x1="295.09375"
       y1="289.64062"
       x2="677.34375"
       y2="289.64062"
       gradientUnits="userSpaceOnUse" />
  </defs>
  <sodipodi:namedview
     id="base"
     pagecolor="#ffffff"
     bordercolor="#666666"
     borderopacity="1.0"
     inkscape:pageopacity="0.0"
     inkscape:pageshadow="2"
     inkscape:zoom="0.49072833"
     inkscape:cx="658.17668"
     inkscape:cy="39.474939"
     inkscape:document-units="px"
     inkscape:current-layer="layer1"
     showgrid="false"
     showguides="true"
     inkscape:guide-bbox="true"
     fit-margin-top="0"
     fit-margin-left="0"
     fit-margin-right="0"
     fit-margin-bottom="0"
     inkscape:window-width="1564"
     inkscape:window-height="935"
     inkscape:window-x="0"
     inkscape:window-y="0"
     inkscape:window-maximized="0" />
  <metadata
     id="metadata7">
    <rdf:RDF>
      <cc:Work
         rdf:about="">
        <dc:format>image/svg+xml</dc:format>
        <dc:type
           rdf:resource="http://purl.org/dc/dcmitype/StillImage" />
        <dc:title></dc:title>
      </cc:Work>
    </rdf:RDF>
  </metadata>
  <g
     inkscape:label="Ebene 1"
     inkscape:groupmode="layer"
     id="layer1"
     transform="translate(-32.31321,-59.188244)">
    <path
       style="fill:url(#linearGradient3824);fill-opacity:1;stroke:#575757;stroke-width:0.2;stroke-linecap:butt;stroke-linejoin:miter;stroke-miterlimit:4;stroke-opacity:0.63987134;stroke-dasharray:none"
       d="m 304.46875,512.40625 c 0,0 -0.94663,19.58946 -2.5,34.8125 -1.55337,15.22305 -2.78855,28.25343 -4.03125,34.15625 -1.2427,5.90281 -1.87479,7.16538 -7.15625,8.71875 -5.28147,1.55337 -21.5,4.89242 -21.5,5.86735 0,1.33791 0.5513,0.63265 4.71875,0.63265 l 89.28125,0 15.75,0 89.25,0 c 4.16745,0 4.75,0.25949 4.75,-1.0625 0,-0.97493 -16.24978,-3.88413 -21.53125,-5.4375 -5.28146,-1.55337 -5.8823,-2.81594 -7.125,-8.71875 -1.2427,-5.90282 -2.50913,-18.9332 -4.0625,-34.15625 -1.55337,-15.22304 -2.46875,-34.8125 -2.46875,-34.8125 l -66.6875,1.40625 z"
       id="path3803"
       inkscape:connector-curvature="0"
       sodipodi:nodetypes="csssssccsssssccc" />
    <path
       style="fill:url(#linearGradient3816);fill-opacity:1;stroke:#3c3c3c;stroke-width:0.2;stroke-miterlimit:4;stroke-opacity:0.28295821"
       d="m 269.49666,596.63275 204.33905,0 c 0.1108,0 0.2,0.0892 0.2,0.2 l 0,2.65408 c 0,0.1108 -0.0892,0.2 -0.2,0.2 l -204.33905,0 c -0.1108,0 -0.2,-0.0892 -0.2,-0.2 l 0,-2.65408 c 0,-0.1108 0.0892,-0.2 0.2,-0.2 z"
       id="rect3808"
       inkscape:connector-curvature="0"
       sodipodi:nodetypes="sssssssss" />
    <path
       style="fill:#e1e1e5;fill-opacity:0.12540193;stroke:none;filter:url(#filter3857)"
       d="m 295.40625,587.875 c -0.96954,0.94586 -2.3632,1.55351 -4.625,2.21875 -5.28147,1.55337 -21.16568,4.81281 -21.16568,5.78774 0,1.32199 0.21698,0.71226 4.38443,0.71226 l 39.6875,0 c -4.23896,-1.42907 -8.8059,-3.0237 -11.125,-4.96875 -2.30076,-1.92967 -4.72325,-3.02296 -7.15625,-3.75 z"
       id="path3830"
       inkscape:connector-curvature="0"
       sodipodi:nodetypes="cssscsc" />
    <path
       style="fill:#e1e1e5;fill-opacity:0.21221864;stroke:none;filter:url(#filter3867)"
       d="m 460.51054,594.03312 c -3.92667,-1.96333 -11.78674,-5.19119 -17.67,-6.10814 -4.82971,-0.75275 -9.59851,0.65444 -14.61591,2.18148 -6.0522,1.84197 -9.16222,2.83593 -5.89,3.49037 3.27222,0.65444 24.86888,0.65444 26.39591,0.65444 1.52704,0 11.78,-0.21815 11.78,-0.21815 z"
       id="path3861"
       inkscape:connector-curvature="0"
       sodipodi:nodetypes="cssssc" />
    <rect
       style="fill:url(#linearGradient3878);fill-opacity:1;stroke:none"
       id="rect3031"
       width="673.09027"
       height="462.74957"
       x="32.31321"
       y="59.188244"
       rx="20" />
    <rect
       style="fill:#1d2446;fill-opacity:0.66237943;stroke:none"
       id="rect3801"
       width="618.21875"
       height="409.70709"
       x="59.139271"
       y="84.794937"
       rx="2" />
    <path
       style="opacity:0.84591196;fill:url(#linearGradient3894);fill-opacity:1;stroke:none"
       d="M 560.41056,84.78125 C 486.8796,131.00669 485.04868,140.17586 412.65625,295.3306 343.75215,443.009 241.91509,446.8936 202.37442,494.5 l 472.96933,0 c 1.108,0 2,-0.892 2,-2 l 0,-405.71875 c 0,-1.108 -0.892,-2 -2,-2 z"
       id="path3880"
       inkscape:connector-curvature="0"
       sodipodi:nodetypes="cscssssc" />
  </g>
</svg>
